<svg width="273" height="256" viewBox="0 0 273 256" fill="none" xmlns="http://www.w3.org/2000/svg">
<path fill-rule="evenodd" clip-rule="evenodd" d="M214.436 0H14.8663C6.65589 0 0 6.65588 0 14.8663V155.421C0 163.631 6.65589 170.287 14.8663 170.287H70.2772C78.4877 170.287 85.1436 176.943 85.1436 185.153V240.564C85.1436 248.775 91.7994 255.431 100.01 255.431H258.134C266.344 255.431 273 248.775 273 240.564V170.287V153.619V58.5644C273 26.2202 246.78 0 214.436 0Z" fill="#0095E5"/>
<path d="M226.904 113.974C239.147 116.739 248.822 122.86 255.93 132.338C263.236 141.618 266.889 152.281 266.889 164.326C266.889 182.097 260.768 196.017 248.526 206.088C236.284 216.158 219.105 221.193 196.99 221.193H93.6211V12.3827H193.732C215.057 12.3827 231.742 17.1216 243.787 26.5995C256.029 36.0775 262.15 49.4058 262.15 66.5845C262.15 78.8268 258.892 89.0946 252.376 97.3878C246.058 105.483 237.567 111.012 226.904 113.974ZM151.673 95.3145H180.996C195.607 95.3145 202.913 89.292 202.913 77.2472C202.913 64.8074 195.607 58.5875 180.996 58.5875H151.673V95.3145ZM185.438 174.396C200.05 174.396 207.356 168.275 207.356 156.032C207.356 149.714 205.382 144.876 201.432 141.519C197.681 138.163 192.251 136.484 185.142 136.484H151.673V174.396H185.438Z" fill="white"/>
</svg>
