<svg width="236" height="37" viewBox="0 0 236 37" fill="none" xmlns="http://www.w3.org/2000/svg">
<path d="M22.288 18.624C24.272 19.072 25.84 20.064 26.992 21.6C28.176 23.104 28.768 24.832 28.768 26.784C28.768 29.664 27.776 31.92 25.792 33.552C23.808 35.184 21.024 36 17.44 36H0.688V2.16H16.912C20.368 2.16 23.072 2.928 25.024 4.464C27.008 6 28 8.16 28 10.944C28 12.928 27.472 14.592 26.416 15.936C25.392 17.248 24.016 18.144 22.288 18.624ZM10.096 15.6H14.848C17.216 15.6 18.4 14.624 18.4 12.672C18.4 10.656 17.216 9.648 14.848 9.648H10.096V15.6ZM15.568 28.416C17.936 28.416 19.12 27.424 19.12 25.44C19.12 24.416 18.8 23.632 18.16 23.088C17.552 22.544 16.672 22.272 15.52 22.272H10.096V28.416H15.568ZM42.2991 13.824C43.3551 12.288 44.6351 11.072 46.1391 10.176C47.6431 9.28 49.2591 8.832 50.9871 8.832V18.864H48.3471C46.2991 18.864 44.7791 19.264 43.7871 20.064C42.7951 20.864 42.2991 22.256 42.2991 24.24V36H32.8911V9.072H42.2991V13.824ZM81.9119 9.072V36H72.4559V32.16C71.6559 33.376 70.5519 34.368 69.1439 35.136C67.7359 35.872 66.1199 36.24 64.2959 36.24C61.1599 36.24 58.6799 35.216 56.8559 33.168C55.0639 31.088 54.1679 28.272 54.1679 24.72V9.072H63.5279V23.52C63.5279 25.056 63.9279 26.272 64.7279 27.168C65.5599 28.032 66.6479 28.464 67.9919 28.464C69.3679 28.464 70.4559 28.032 71.2559 27.168C72.0559 26.272 72.4559 25.056 72.4559 23.52V9.072H81.9119ZM104.882 8.832C107.986 8.832 110.45 9.872 112.274 11.952C114.098 14 115.01 16.784 115.01 20.304V36H105.602V21.552C105.602 20.016 105.202 18.816 104.402 17.952C103.602 17.056 102.53 16.608 101.186 16.608C99.7781 16.608 98.6741 17.056 97.8741 17.952C97.0741 18.816 96.6741 20.016 96.6741 21.552V36H87.2661V9.072H96.6741V12.912C97.5061 11.696 98.6261 10.72 100.034 9.984C101.442 9.216 103.058 8.832 104.882 8.832ZM132.7 36.336C130.012 36.336 127.596 35.776 125.452 34.656C123.34 33.536 121.676 31.936 120.46 29.856C119.244 27.776 118.636 25.328 118.636 22.512C118.636 19.728 119.244 17.296 120.46 15.216C121.708 13.136 123.388 11.536 125.5 10.416C127.644 9.296 130.06 8.736 132.748 8.736C135.436 8.736 137.836 9.296 139.948 10.416C142.092 11.536 143.772 13.136 144.988 15.216C146.236 17.296 146.86 19.728 146.86 22.512C146.86 25.296 146.236 27.744 144.988 29.856C143.772 31.936 142.092 33.536 139.948 34.656C137.804 35.776 135.388 36.336 132.7 36.336ZM132.7 28.176C134.012 28.176 135.1 27.696 135.964 26.736C136.86 25.744 137.308 24.336 137.308 22.512C137.308 20.688 136.86 19.296 135.964 18.336C135.1 17.376 134.028 16.896 132.748 16.896C131.468 16.896 130.396 17.376 129.532 18.336C128.668 19.296 128.236 20.688 128.236 22.512C128.236 24.368 128.652 25.776 129.484 26.736C130.316 27.696 131.388 28.176 132.7 28.176Z" fill="black"/>
<path d="M150.304 22.848C150.304 20.16 150.848 17.808 151.936 15.792C153.024 13.744 154.512 12.176 156.4 11.088C158.32 9.968 160.48 9.408 162.88 9.408C165.184 9.408 167.264 9.968 169.12 11.088C170.976 12.208 172.336 13.664 173.2 15.456V0.48H176.56V36H173.2V30.144C172.4 31.968 171.088 33.472 169.264 34.656C167.44 35.808 165.296 36.384 162.832 36.384C160.432 36.384 158.272 35.824 156.352 34.704C154.464 33.584 152.976 32 151.888 29.952C150.832 27.904 150.304 25.536 150.304 22.848ZM173.2 22.896C173.2 20.784 172.768 18.928 171.904 17.328C171.04 15.728 169.856 14.496 168.352 13.632C166.88 12.768 165.248 12.336 163.456 12.336C161.6 12.336 159.936 12.752 158.464 13.584C156.992 14.416 155.824 15.632 154.96 17.232C154.128 18.8 153.712 20.672 153.712 22.848C153.712 24.992 154.128 26.88 154.96 28.512C155.824 30.112 156.992 31.344 158.464 32.208C159.936 33.04 161.6 33.456 163.456 33.456C165.248 33.456 166.88 33.024 168.352 32.16C169.856 31.296 171.04 30.064 171.904 28.464C172.768 26.864 173.2 25.008 173.2 22.896ZM207.943 21.552C207.943 22.704 207.911 23.584 207.847 24.192H186.103C186.199 26.176 186.679 27.872 187.543 29.28C188.407 30.688 189.543 31.76 190.951 32.496C192.359 33.2 193.895 33.552 195.559 33.552C197.735 33.552 199.559 33.024 201.031 31.968C202.535 30.912 203.527 29.488 204.007 27.696H207.559C206.919 30.256 205.543 32.352 203.431 33.984C201.351 35.584 198.727 36.384 195.559 36.384C193.095 36.384 190.887 35.84 188.935 34.752C186.983 33.632 185.447 32.064 184.327 30.048C183.239 28 182.695 25.616 182.695 22.896C182.695 20.176 183.239 17.792 184.327 15.744C185.415 13.696 186.935 12.128 188.887 11.04C190.839 9.952 193.063 9.408 195.559 9.408C198.055 9.408 200.231 9.952 202.087 11.04C203.975 12.128 205.415 13.6 206.407 15.456C207.431 17.28 207.943 19.312 207.943 21.552ZM204.535 21.456C204.567 19.504 204.167 17.84 203.335 16.464C202.535 15.088 201.431 14.048 200.023 13.344C198.615 12.64 197.079 12.288 195.415 12.288C192.919 12.288 190.791 13.088 189.031 14.688C187.271 16.288 186.295 18.544 186.103 21.456H204.535ZM223.402 32.736L232.234 9.792H235.786L225.274 36H221.482L210.97 9.792H214.57L223.402 32.736Z" fill="#0095E5"/>
</svg>
